Release Title: Hercules 1997

Release Date: 27 June 1997 (USA)

Film Length: 1:32:46

Tagline: A Comedy of Epic Proportions

Storyline: Hercules, son of the Greek God, Zeus, is turned into a half-god, half-mortal by evil Hades, God of the Underworld, who plans to overthrow Zeus. Hercules is raised on Earth and retains his god-like strength, but when he discovers his immortal heritage Zeus tells him that to return to Mount Olympus he must become a True Hero. Hercules becomes a famous hero with the help of his friend Pegasus and his personal trainer, Phil the satyr. Hercules battles monsters, Hades and the Titans, but it is his self-sacrifice to rescue his love Meg which makes him a True Hero.


Genre: Animation | Adventure | Family
Format: Matroska
File size: 2.21 GiB
Duration: 1h 32mn
Overall bit rate: 3 405 Kbps
Movie name: Hercules 1997 720p HDTV Dual Audio [Eng-Hindi]~Alan (HDDR Release)
Language: English and Hindi
Ripper: Alan

Video
ID : 1
Format : AVC
Format/Info : Advanced Video Codec
Format profile : High@L4.1
Format settings, CABAC : Yes
Format settings, ReFrames : 4 frames
Muxing mode : Header stripping
Codec ID : V_MPEG4/ISO/AVC
Duration : 1h 32mn
Bit rate : 2 636 Kbps
Width : 1 280 pixels
Height : 720 pixels
Display aspect ratio : 16:9
Frame rate : 23.976 fps
Color space : YUV
Chroma subsampling : 4:2:0
Bit depth : 8 bits
Scan type : Progressive
Bits/(Pixel*Frame) : 0.119
Stream size : 1.67 GiB (75%)
Title : Alan
Writing library : x264 core 115 r1995 c1e60b9
Language : English

Audio #1
ID : 2
Format : AC-3
Format/Info : Audio Coding 3
Mode extension : CM (complete main)
Muxing mode : Header stripping
Codec ID : A_AC3
Duration : 1h 32mn
Bit rate mode : Constant
Bit rate : 448 Kbps
Channel(s) : 6 channels
Channel positions : Front: L C R, Side: L R, LFE
Sampling rate : 48.0 KHz
Bit depth : 16 bits
Compression mode : Lossy
Stream size : 297 MiB (13%)
Title : Alan
Language : English

Audio #2
ID : 3
Format : AC-3
Format/Info : Audio Coding 3
Mode extension : CM (complete main)
Muxing mode : Header stripping
Codec ID : A_AC3
Duration : 1h 32mn
Bit rate mode : Constant
Bit rate : 320 Kbps
Channel(s) : 2 channels
Channel positions : Front: L R
Sampling rate : 48.0 KHz
Bit depth : 16 bits
Compression mode : Lossy
Delay relative to video : 22ms
Stream size : 212 MiB (9%)
Title : Alan
Language : Hindi
 
http://www.leetleech.org/images/63942201232045617248.png 
http://www.leetleech.org/images/23154483396453343764.png 
http://www.leetleech.org/images/55405849205593453271.png 
http://www.leetleech.org/images/05031362684531250472.png 
http://www.leetleech.org/images/95895768264504936512.png 
http://www.leetleech.org/images/20801939274244862827.png 
http://www.leetleech.org/images/26631061685766000021.png